<svg xmlns="http://www.w3.org/2000/svg" viewBox="0 0 700 760" role="img" aria-label="Map of India">
<defs><linearGradient id="g" x1="0" y1="0" x2="1" y2="1"><stop stop-color="#ffffff"/><stop offset="1" stop-color="#dfeeff"/></linearGradient><filter id="s"><feDropShadow dx="0" dy="14" stdDeviation="16" flood-color="#06183b" flood-opacity=".22"/></filter></defs>
<g fill="url(#g)" stroke="#8fb8e8" stroke-width="2.5" fill-rule="evenodd" filter="url(#s)"><path d="M 674.32,234.28 L 676.00,242.74 L 668.18,246.83 L 670.01,260.56 L 654.07,256.52 L 625.18,271.94 L 625.86,284.71 L 613.55,303.42 L 612.42,314.29 L 602.47,332.68 L 585.04,327.60 L 584.17,350.69 L 579.13,358.29 L 581.49,367.76 L 570.48,373.05 L 558.73,337.66 L 552.57,337.73 L 548.93,351.99 L 536.71,340.43 L 543.60,327.73 L 553.58,326.44 L 563.87,307.56 L 551.00,303.76 L 530.31,304.09 L 509.09,301.03 L 507.12,285.51 L 496.47,284.41 L 478.80,274.77 L 470.92,289.91 L 487.02,301.72 L 473.07,310.03 L 468.12,318.16 L 481.85,324.14 L 478.06,337.58 L 485.79,354.36 L 489.26,372.73 L 486.07,380.87 L 470.89,380.59 L 443.39,385.22 L 444.67,402.01 L 432.76,415.21 L 400.66,430.22 L 375.69,456.47 L 358.91,470.54 L 336.69,485.15 L 336.65,495.41 L 325.53,500.90 L 305.44,508.90 L 295.01,510.07 L 288.33,527.09 L 292.97,556.11 L 294.15,574.61 L 284.70,595.81 L 284.60,633.71 L 273.05,634.79 L 262.90,651.80 L 269.69,659.16 L 249.35,665.48 L 241.84,680.65 L 232.88,687.07 L 211.76,666.24 L 201.43,634.99 L 192.87,612.49 L 185.06,601.94 L 173.21,580.51 L 167.67,552.61 L 163.82,538.67 L 143.52,508.03 L 134.28,464.80 L 127.61,436.25 L 127.69,409.23 L 123.36,388.34 L 90.90,401.69 L 75.17,399.02 L 46.03,371.98 L 56.76,363.92 L 50.17,355.16 L 24.00,336.23 L 38.86,321.34 L 87.95,321.40 L 83.52,302.25 L 70.99,290.93 L 68.45,273.76 L 53.84,263.74 L 78.43,240.36 L 104.34,242.05 L 127.67,218.67 L 141.66,196.03 L 163.31,173.64 L 162.97,157.74 L 181.99,144.83 L 163.99,133.82 L 156.24,118.72 L 148.33,99.18 L 159.27,89.56 L 193.11,95.00 L 217.98,91.68 L 239.52,72.93 L 263.50,99.08 L 261.24,117.28 L 270.12,128.70 L 269.39,140.09 L 253.38,137.09 L 259.63,161.68 L 281.55,175.81 L 312.56,191.41 L 298.40,201.53 L 289.74,222.39 L 311.35,230.84 L 332.38,241.78 L 361.48,254.29 L 392.06,257.19 L 404.93,268.53 L 422.16,270.66 L 449.00,275.86 L 467.58,275.49 L 470.14,266.66 L 467.20,252.48 L 468.93,242.87 L 482.53,238.18 L 484.40,255.75 L 484.88,260.22 L 505.16,268.69 L 519.18,265.20 L 538.02,266.70 L 556.22,266.03 L 557.79,252.33 L 548.71,245.21 L 566.70,242.42 L 587.00,225.83 L 612.72,211.62 L 631.43,217.10 L 647.34,207.71 L 657.80,221.58 L 650.26,230.95 L 674.32,234.28 Z"/></g></svg>